<?xml version="1.0" encoding="utf-8"?>
<!-- Generator: Adobe Illustrator 22.1.0, SVG Export Plug-In . SVG Version: 6.00 Build 0)  -->
<svg version="1.1" id="레이어_1" xmlns="http://www.w3.org/2000/svg" xmlns:xlink="http://www.w3.org/1999/xlink" x="0px"
	 y="0px" viewBox="0 0 300 100" style="enable-background:new 0 0 300 100;" xml:space="preserve">
<style type="text/css">
	.st0{fill:#F9F9FB;}
</style>
<g>
	<path class="st0" d="M38,46.4V36.1h4.7V62h-4.6v-1.9c-1.1,1.4-2.8,2.4-5.2,2.4c-4.8,0-8.4-3.9-8.4-9.2c0-5.2,3.6-9.2,8.4-9.2
		C35.2,44.1,36.9,45,38,46.4z M29.2,53.3c0,2.7,1.7,4.8,4.5,4.8c2.7,0,4.5-2.1,4.5-4.8c0-2.8-1.8-4.8-4.5-4.8
		C31,48.5,29.2,50.6,29.2,53.3z"/>
	<path class="st0" d="M63.9,62h-4.6v-1.9c-1.1,1.4-2.8,2.4-5.2,2.4c-4.8,0-8.4-3.9-8.4-9.2c0-5.2,3.6-9.2,8.4-9.2
		c2.4,0,4.1,1,5.2,2.4v-1.9h4.6V62z M50.4,53.3c0,2.7,1.7,4.8,4.5,4.8c2.7,0,4.5-2.1,4.5-4.8c0-2.8-1.8-4.8-4.5-4.8
		C52.2,48.5,50.4,50.6,50.4,53.3z"/>
	<path class="st0" d="M73.3,52.8V62h-5V36.8h10.3c6,0,9.2,3.1,9.2,8c0,4.8-3.2,8-9.2,8H73.3z M73.3,41.4v6.8h5.2
		c2.7,0,4.2-1.1,4.2-3.4c0-2.3-1.4-3.4-4.2-3.4H73.3z"/>
	<path class="st0" d="M108,53.3c0,5.3-4,9.2-9.5,9.2c-5.4,0-9.4-3.9-9.4-9.2c0-5.3,4-9.2,9.4-9.2C103.9,44.1,108,48,108,53.3z
		 M93.9,53.3c0,2.8,2,4.8,4.6,4.8s4.6-2,4.6-4.8c0-2.8-2-4.8-4.6-4.8S93.9,50.4,93.9,53.3z"/>
	<path class="st0" d="M123.3,49.4c-1.4-0.7-3.6-1.4-5.6-1.4c-1.8,0-2.7,0.6-2.7,1.6c0,1,1.3,1.3,2.8,1.5l1.5,0.2
		c3.8,0.6,5.9,2.3,5.9,5.2c0,3.6-3,5.9-8,5.9c-2.4,0-5.5-0.5-7.8-2.1l1.9-3.6c1.5,1,3.3,1.7,5.9,1.7c2.2,0,3.2-0.6,3.2-1.6
		c0-0.8-0.9-1.3-2.9-1.6l-1.4-0.2c-4-0.6-6-2.3-6-5.3c0-3.6,2.8-5.7,7.4-5.7c2.8,0,5,0.5,7.3,1.7L123.3,49.4z"/>
	<path class="st0" d="M145.8,41.1c-2-1.4-4.6-2.5-7.9-2.5c-4.1,0-7,1.9-7,5c0,2.5,1.9,4,6.2,4.5l2.8,0.3c4.5,0.5,7.7,2.3,7.7,6.5
		c0,4.9-4.5,7.3-9.9,7.3c-3.8,0-7.5-1.4-9.8-3.2l1.2-1.7c1.8,1.4,5,2.8,8.5,2.8c4.3,0,7.6-1.7,7.6-5.1c0-2.7-2.2-4.1-6.4-4.5
		l-2.9-0.3c-4.6-0.5-7.4-2.6-7.4-6.5c0-4.6,4.1-7.3,9.3-7.3c3.9,0,6.8,1.2,9,2.8L145.8,41.1z"/>
	<path class="st0" d="M154.2,48c1.3-2.2,3.7-3.2,6-3.2c4.2,0,7.1,2.6,7.1,6.8V62h-2.1v-9.8c0-3.4-2-5.5-5.4-5.5
		c-3.2,0-5.7,2.3-5.7,5.6V62h-2.1V36.1h2.1V48z"/>
	<path class="st0" d="M189.1,53.5c0,5-3.8,8.7-8.8,8.7s-8.8-3.7-8.8-8.7c0-5,3.8-8.8,8.8-8.8S189.1,48.5,189.1,53.5z M173.6,53.5
		c0,3.9,2.9,6.8,6.7,6.8c3.8,0,6.7-2.9,6.7-6.8s-2.9-6.8-6.7-6.8C176.5,46.7,173.6,49.6,173.6,53.5z"/>
	<path class="st0" d="M210.6,53.5c0,5-3.7,8.7-8.5,8.7c-3.1,0-5.3-1.4-6.7-3.5v10.4h-2.1V45.1h2.1v3.2c1.4-2.1,3.6-3.5,6.7-3.5
		C206.9,44.8,210.6,48.5,210.6,53.5z M195.3,53.5c0,3.9,2.8,6.8,6.6,6.8c3.9,0,6.6-3,6.6-6.8c0-3.8-2.7-6.8-6.6-6.8
		C198.1,46.7,195.3,49.6,195.3,53.5z"/>
</g>
</svg>
